<?xml version="1.0" encoding="UTF-8"?>
<!-- Copyright dr.ing. Radu Pascu - 2026 

**A. Scalarea se face prin atributul width sau height
<img src="nutrisib_logo.svg" alt="Nutrisib Logo" width="200">
**B. Injecție directă (Inline SVG):**
Copiază codul `<svg>...</svg>` direct în fișierul tău HTML. Această metodă îți oferă cel mai mult control, permițându-ți să schimbi culorile prin CSS dacă dorești.
```html
<div class="header-logo">
  <!-- Inserezi codul SVG aici:
  <svg viewBox="25 70 150 45" ...>...</svg>
</div>

**C. Folosind CSS (ca fundal):**
Util dacă vrei să folosești sigla ca element decorativ.
```css
.logo-container {
  width: 150px;
  height: 50px;
  background-image: url('nutrisib_logo.svg');
  background-size: contain;
  background-repeat: no-repeat;
}
-->
<svg viewBox="24 70 150 45" xmlns="http://www.w3.org/2000/svg" version="1.1">
  <g transform="translate(4.7481 20.216)">
    <g>
      <!-- Simbol grafic: Frunza verde deschis -->
      <path d="m109.4 72.235c-0.0769-0.01969-0.15236-0.04838-0.16773-0.06377-0.0408-0.04078-0.0211-0.36204 0.0257-0.41967 0.022-0.02709 0.069-0.15403 0.10439-0.28213 0.0951-0.34385 0.19406-0.63336 0.28624-0.83753 0.045-0.09961 0.0818-0.21024 0.0818-0.24583s0.036-0.14466 0.0799-0.24238c0.0439-0.09771 0.0939-0.24436 0.11104-0.32588 0.0171-0.08152 0.0669-0.21892 0.11067-0.30534 0.0437-0.08641 0.0795-0.19675 0.0795-0.24519 0-0.04843 0.0355-0.15877 0.079-0.24519 0.0434-0.08641 0.0927-0.23237 0.10937-0.32436 0.0167-0.09198 0.0574-0.2058 0.0904-0.25293 0.033-0.04713 0.06-0.11481 0.0599-0.15038-1.3e-4-0.06564 0.15493-0.47215 0.30106-0.78926 0.0441-0.09572 0.0802-0.20106 0.0802-0.23408 0-0.03304 0.026-0.09764 0.0578-0.14359 0.0318-0.04593 0.0722-0.13118 0.0897-0.18941 0.0772-0.2558 0.61792-1.3633 0.72536-1.4855 0.0323-0.03678 0.0587-0.08109 0.0587-0.09848 0-0.02644 0.20215-0.38277 0.41071-0.72399 0.0285-0.04658 0.0763-0.13234 0.10638-0.19057 0.068-0.1319 0.38265-0.62022 0.49114-0.76228 0.0445-0.05823 0.22037-0.30597 0.39088-0.55054 0.30061-0.43117 0.71069-0.96579 0.84373-1.1 0.0358-0.03618 0.17717-0.1989 0.31405-0.36163 0.45006-0.53509 1.2688-1.3435 2.0803-2.054 0.39972-0.34997 0.86815-0.82325 0.86815-0.87715 0-0.12876-0.50609-0.03778-0.9952 0.17884-0.0699 0.03094-0.25091 0.10915-0.40231 0.17377-0.1514 0.06462-0.32291 0.14898-0.38114 0.18747-0.0582 0.03848-0.21196 0.12288-0.34161 0.18755-0.27779 0.13856-0.54369 0.33118-1.1684 0.84646-0.44084 0.36359-0.55026 0.45926-1.0718 0.93704-0.1289 0.11809-0.32013 0.28901-0.42494 0.37984-0.27103 0.23486-0.92593 0.8991-1.1011 1.1168-0.0815 0.10132-0.24164 0.31991-0.35583 0.48575-0.18316 0.26601-0.42494 0.60086-0.52352 0.72501-0.0185 0.02329-0.0902 0.1329-0.15943 0.24359-0.0692 0.11068-0.28006 0.43741-0.46858 0.72606-0.18852 0.28864-0.40406 0.64258-0.47897 0.78653-0.0749 0.14394-0.19848 0.36035-0.2746 0.48089-0.0761 0.12054-0.32454 0.60032-0.55206 1.0662-0.22753 0.46584-0.43844 0.89462-0.46869 0.95285-0.0302 0.05823-0.075 0.17257-0.0995 0.2541-0.0245 0.08152-0.0947 0.28162-0.15615 0.44467-0.0614 0.16304-0.14141 0.39173-0.17777 0.50819-0.09 0.28833-0.22123 0.6423-0.31497 0.84976-0.0428 0.0947-0.0778 0.19292-0.0778 0.21827 0 0.02534-0.0524 0.15037-0.11646 0.27783-0.10313 0.20522-0.12711 0.22775-0.20946 0.19685-0.17782-0.06673-0.3172-0.46339-0.48255-1.3733-0.0254-0.13975-0.0744-0.39702-0.10899-0.57171-0.14087-0.7124-0.23958-2.2471-0.18672-2.9034 0.0224-0.27814 0.0536-0.92416 0.0692-1.4356 0.0173-0.56486 0.0494-0.98916 0.0818-1.0809 0.0293-0.08302 0.0671-0.2744 0.0841-0.42526 0.017-0.15087 0.067-0.37846 0.11114-0.50576 0.0441-0.1273 0.0811-0.27022 0.0821-0.31762 1e-3-0.04738 0.0312-0.16239 0.067-0.25556 0.0358-0.09317 0.09-0.26468 0.1204-0.38114 0.0304-0.11646 0.0859-0.26892 0.12332-0.3388 0.0374-0.06988 0.0688-0.15563 0.0696-0.19057 9.9e-4-0.03494 0.0485-0.15881 0.10574-0.27527 0.0573-0.11646 0.1045-0.2308 0.10492-0.25409 1e-3-0.04513 0.34119-0.71987 0.5234-1.0376 0.0601-0.10481 0.14702-0.25937 0.19312-0.34345 0.12137-0.22142 0.67785-0.95529 0.91165-1.2023 0.11025-0.11646 0.29035-0.30703 0.40023-0.42349 0.26667-0.28263 1.1344-1.0904 1.2245-1.1399 0.0606-0.03329 0.31378-0.22855 0.61198-0.47202 0.041-0.03349 0.0847-0.0609 0.0971-0.0609 0.0123 0 0.19595-0.1178 0.40795-0.26178 0.21199-0.14398 0.45415-0.29846 0.53813-0.3433 0.49844-0.26611 1.3792-0.70774 1.4115-0.70774 0.0209 0 0.14644-0.04928 0.27892-0.10955 0.86332-0.39262 0.97562-0.44099 1.0239-0.44099 0.0259 0 0.11764-0.03664 0.20378-0.08136 0.0861-0.04473 0.29954-0.13386 0.47423-0.19802 0.17469-0.06416 0.39385-0.14915 0.48702-0.18886 0.0932-0.03973 0.21704-0.08532 0.27527-0.10133 0.0582-0.01599 0.16304-0.05386 0.23291-0.08408 0.17377-0.07516 0.50752-0.18912 0.76228-0.26027 0.11647-0.03254 0.24986-0.07863 0.29645-0.10246 0.0466-0.02384 0.17999-0.06953 0.29644-0.10157 0.11646-0.03204 0.26892-0.07823 0.3388-0.10264 0.2973-0.10386 0.81629-0.25501 0.96165-0.28007 0.0864-0.01489 0.21023-0.05483 0.27526-0.08875 0.065-0.03394 0.16731-0.0618 0.22725-0.06194 0.06-1.4e-4 0.26817-0.04788 0.46272-0.10613 0.19454-0.0582 0.38639-0.10587 0.42633-0.10587 0.0399 0 0.15568-0.03768 0.25721-0.08377 0.10154-0.04608 0.23797-0.08418 0.30318-0.0847 0.0652-4.8e-4 0.17621-0.03074 0.24666-0.06717 0.0705-0.03644 0.2585-0.09109 0.41789-0.12146 0.24539-0.04678 0.30884-0.04598 0.41417 0.0051 0.12764 0.06181 0.27886 0.33336 0.32579 0.58499 0.18909 1.0141 0.24074 2.7502 0.12912 4.3408-0.15046 2.1444-0.29871 3.6347-0.37358 3.7559-0.0125 0.02019-0.0435 0.19819-0.0689 0.39552-0.0456 0.35411-0.0757 0.5004-0.27422 1.3328-0.0555 0.23292-0.1136 0.50125-0.129 0.59628-0.0237 0.14648-0.15588 0.54665-0.52104 1.578-0.0358 0.10115-0.22226 0.49182-0.41431 0.86816-0.51059 1.0005-0.58541 1.1404-0.64397 1.2043-0.0291 0.03174-0.0529 0.07803-0.0529 0.10285 0 0.02484-0.0858 0.17531-0.19058 0.3344-0.10481 0.1591-0.19057 0.30603-0.19057 0.3265 0 0.02049-0.0333 0.07778-0.0741 0.12732-0.0407 0.04953-0.12175 0.15841-0.17998 0.24192-0.17759 0.25468-0.61834 0.79778-0.7251 0.89348-0.0554 0.04968-0.19599 0.19015-0.31245 0.31221-0.39839 0.41756-1.5694 1.355-2.0898 1.673-0.46646 0.28504-1.4267 0.7799-1.5222 0.78447-0.0165 1e-3-0.10623 0.03824-0.1994 0.08327-0.0932 0.04498-0.1985 0.08247-0.23408 0.08326-0.0356 1e-3-0.10244 0.02789-0.14858 0.0602-0.0461 0.03234-0.16948 0.0826-0.2741 0.11175-0.10462 0.02914-0.2677 0.08846-0.3624 0.13181-0.0947 0.04333-0.2131 0.07882-0.26311 0.07882-0.05 0-0.18763 0.03813-0.30582 0.0847-0.11818 0.04658-0.28563 0.08492-0.37212 0.08519-0.0865 3.2e-4-0.3097 0.04003-0.49603 0.08833-0.29307 0.07598-0.49598 0.08998-1.5034 0.10375-0.64053 0.0087-1.2275-1.6e-4-1.3044-0.01989z" fill="#91c43f"/>
       <!-- Simbol grafic: Frunza verde închis -->
      <path d="m104.36 72.151c-0.15671-0.01824-0.34728-0.05279-0.42349-0.07675-0.0762-0.02394-0.25289-0.05597-0.39265-0.07113-0.13975-0.01519-0.35891-0.0616-0.48701-0.10318-0.12811-0.04158-0.30915-0.09544-0.40232-0.11968-0.21706-0.05646-0.62064-0.19892-0.72438-0.25569-0.15067-0.08245-0.56193-0.26091-0.60128-0.26091-0.0216 0-0.0847-0.03549-0.14025-0.07887-0.0555-0.04338-0.14424-0.09242-0.19708-0.10898-0.11507-0.03604-0.5403-0.31-1.0039-0.64676-0.65974-0.47921-1.6644-1.5479-2.1397-2.2762-0.0349-0.05353-0.13045-0.19972-0.21225-0.32486-0.2099-0.32112-0.2314-0.35922-0.40313-0.71454-0.29405-0.6084-0.42602-0.92272-0.50474-1.2022-0.0335-0.11906-0.1109-0.37846-0.17192-0.57645-0.061-0.19798-0.13728-0.46478-0.16946-0.59288-0.0858-0.34164-0.22479-0.8407-0.29481-1.0587-0.0337-0.10482-0.081-0.33947-0.10525-0.52146-0.0242-0.18199-0.0628-0.36598-0.0858-0.40886-0.0229-0.04288-0.0527-0.21796-0.0661-0.38904-0.0134-0.17108-0.0557-0.50164-0.094-0.73456-0.0466-0.28324-0.0703-0.68996-0.0715-1.2281-1e-3-0.7357 5e-3-0.81724 0.0845-0.95175 0.0542-0.09227 0.1454-0.16957 0.2446-0.20732 0.14307-0.05445 0.19548-0.05125 0.54881 0.03349 0.21485 0.05153 0.45733 0.1201 0.53885 0.15237 0.0815 0.03229 0.25851 0.08015 0.39331 0.10638 0.1348 0.02624 0.29678 0.07466 0.35997 0.10762 0.0632 0.03299 0.14653 0.06005 0.18522 0.0602 0.0387 1.45e-4 0.17209 0.03683 0.29645 0.08153 0.23768 0.08544 0.5217 0.17977 0.84016 0.27905 0.17574 0.05479 0.62656 0.21622 1.0375 0.37154 0.0932 0.03519 0.22657 0.09446 0.29644 0.13166 0.0699 0.03718 0.15269 0.06776 0.18404 0.0679 0.0313 1.45e-4 0.10757 0.02759 0.1694 0.06097 0.0618 0.03339 0.3125 0.15898 0.55707 0.27907 0.51436 0.25258 0.98699 0.5368 1.2983 0.78073 0.12011 0.09412 0.28155 0.21877 0.35872 0.277 0.27419 0.20688 0.86615 0.7553 1.0902 1.01 0.31234 0.35507 0.5972 0.85726 0.68789 1.2127 0.12946 0.50729 0.22515 3.2024 0.12324 3.4705-0.0878 0.23099-0.28556 0.10067-0.7196-0.47428-0.21015-0.27838-0.75428-0.84979-1.3712-1.4399-0.4814-0.46052-1.0127-0.80944-1.51-0.99168-0.47598-0.17444-0.60092-0.17423-0.43407 1e-3 0.0408 0.04273 0.1027 0.12145 0.13763 0.17491 0.0349 0.05346 0.12781 0.17557 0.2064 0.27135 0.0786 0.09579 0.22576 0.29817 0.32707 0.44974s0.23727 0.35181 0.30212 0.44498c0.0648 0.09317 0.23071 0.35044 0.36859 0.57171s0.37785 0.5643 0.53325 0.76228c0.2819 0.35914 0.54646 0.73835 0.86704 1.2428 0.49652 0.78128 0.74111 1.1804 0.74111 1.2095 0 0.02669 0.54663 1.161 0.67909 1.4093 0.0681 0.12768 0.21024 0.58021 0.21024 0.66952 0 0.16372-0.2856 0.20175-0.94134 0.12535" fill="#65a041"/>
    </g>
  </g>
  <!-- Textul NUTRISIB (negru) -->
  <g fill="#000000">
    <path d="m163.11 114.77c-1.397 0-2.6905-0.24577-3.8806-0.73731-1.1642-0.49153-2.1602-1.2418-2.988-2.2507v2.7164h-4.6179v-28.794h4.8507v10.594c0.82785-0.93133 1.8109-1.6169 2.9492-2.0567 1.1383-0.46567 2.3671-0.6985 3.6865-0.6985 2.0179 0 3.8159 0.4398 5.394 1.3194 1.5781 0.85372 2.8199 2.0826 3.7253 3.6865 0.93133 1.5781 1.397 3.4408 1.397 5.588s-0.46567 4.0228-1.397 5.6268c-0.90546 1.5781-2.1472 2.8069-3.7253 3.6865s-3.3761 1.3194-5.394 1.3194zm-0.54327-4.1522c1.1642 0 2.199-0.2587 3.1044-0.77611 0.93133-0.54328 1.6686-1.2935 2.2119-2.2507 0.54328-0.98307 0.81492-2.1343 0.81492-3.4537s-0.27164-2.4577-0.81492-3.4149c-0.54328-0.98307-1.2806-1.7333-2.2119-2.2507-0.90546-0.54328-1.9403-0.81492-3.1044-0.81492s-2.2119 0.27164-3.1432 0.81492c-0.93133 0.51741-1.6686 1.2676-2.2119 2.2507-0.54328 0.95721-0.81492 2.0955-0.81492 3.4149s0.27164 2.4706 0.81492 3.4537c0.54328 0.9572 1.2806 1.7074 2.2119 2.2507 0.93133 0.51741 1.9791 0.77611 3.1432 0.77611z"/>
    <path d="m142.85 90.357c-0.90546 0-1.6557-0.28457-2.2507-0.85372-0.56915-0.56915-0.85372-1.2547-0.85372-2.0567s0.28457-1.4875 0.85372-2.0567c0.59502-0.56915 1.3453-0.85372 2.2507-0.85372s1.6428 0.27164 2.2119 0.81492c0.59501 0.51741 0.89252 1.1771 0.89252 1.9791 0 0.85372-0.29751 1.5781-0.89252 2.1731-0.56915 0.56915-1.3065 0.85372-2.2119 0.85372z"/>
    <path d="m140.4 114.49v-20.722h4.8507v20.722z"/>
    <path d="m126.82 114.77c-1.7333 0-3.402-0.2199-5.0059-0.6597-1.5781-0.43979-2.8328-0.99601-3.7641-1.6686l1.8627-3.6865c0.90546 0.62089 2.005 1.1254 3.2985 1.5134 1.3194 0.36219 2.6258 0.54328 3.9194 0.54328 1.5522 0 2.6646-0.20696 3.3373-0.62089s1.0089-0.97014 1.0089-1.6686c0-0.67263-0.31044-1.1512-0.93133-1.4358-0.62089-0.31045-1.4229-0.54328-2.4059-0.6985-0.95721-0.15523-1.9791-0.32339-3.0656-0.50448-1.0866-0.18109-2.1214-0.46567-3.1044-0.85372-0.9572-0.38805-1.7462-0.97014-2.3671-1.7462-0.62089-0.80198-0.93133-1.8885-0.93133-3.2597 0-1.9661 0.81492-3.5313 2.4448-4.6955 1.6557-1.19 3.8806-1.7851 6.6746-1.7851 1.3711 0 2.7681 0.15522 4.191 0.46567 1.4487 0.31044 2.6388 0.75024 3.5701 1.3194l-1.8627 3.6865c-0.98307-0.56915-1.9791-0.97014-2.988-1.203-0.98307-0.23283-1.9662-0.34925-2.9492-0.34925-1.4746 0-2.5741 0.2199-3.2985 0.65969-0.6985 0.4398-1.0478 0.99601-1.0478 1.6686 0 0.6985 0.31044 1.2159 0.93133 1.5522 0.62089 0.33632 1.4099 0.58209 2.3671 0.73731 0.98307 0.15522 2.0179 0.33631 3.1044 0.54328 1.0866 0.18109 2.1084 0.46567 3.0656 0.85372 0.98307 0.38805 1.7851 0.97014 2.406 1.7462 0.62089 0.75024 0.93133 1.798 0.93133 3.1432 0 1.9403-0.84079 3.4925-2.5224 4.6567s-3.9711 1.7462-6.8686 1.7462z"/>
    <path d="m109.2 114.49v-20.722h4.8507v20.722z"/>
    <path d="m93.1 114.49v-20.722h4.6179v3.0268c1.4229-2.1731 3.8806-3.2597 7.3731-3.2597v4.6179c-0.20697-0.02587-0.401-0.05174-0.58209-0.07761s-0.36218-0.03881-0.54327-0.03881c-1.8368 0-3.2985 0.54328-4.385 1.6298-1.0866 1.0607-1.6298 2.6517-1.6298 4.7731v10.051z"/>
    <path d="m84.446 114.77c-2.2766 0-4.0358-0.58208-5.2776-1.7462-1.2418-1.19-1.8627-2.9363-1.8627-5.2388v-10.128h-3.4149v-3.8806h3.4149v-4.5791h4.8507v4.5791h5.5492v3.8806h-5.5492v10.012c0 1.009 0.24577 1.7851 0.7373 2.3283 0.49154 0.51741 1.203 0.77611 2.1343 0.77611 1.0607 0 1.9661-0.28457 2.7164-0.85372l1.3582 3.4537c-0.59502 0.46567-1.3065 0.81492-2.1343 1.0478-0.80198 0.23283-1.6428 0.34925-2.5224 0.34925z"/>
    <path d="m58.99 114.77c-2.6388 0-4.786-0.73731-6.4417-2.2119-1.6557-1.5005-2.4836-3.8159-2.4836-6.9462v-11.836h4.8507v11.176c0 1.8885 0.42686 3.2855 1.2806 4.191s2.0438 1.3582 3.5701 1.3582c1.7074 0 3.0786-0.51741 4.1134-1.5522 1.0348-1.0607 1.5522-2.6258 1.5522-4.6955v-10.478h4.8507v20.722h-4.6179v-2.6388c-0.77611 0.93133-1.7462 1.6557-2.9104 2.1731-1.1642 0.49154-2.4189 0.73731-3.7641 0.73731z"/>
    <path d="m23.638 114.49v-20.722h4.6179v2.6776c0.80198-0.9572 1.8109-1.6816 3.0268-2.1731 1.2418-0.49154 2.6129-0.73731 4.1134-0.73731 1.6557 0 3.1303 0.32338 4.4238 0.97014 1.3194 0.64676 2.3542 1.6428 3.1044 2.988s1.1254 3.0527 1.1254 5.1223v11.874h-4.8507v-11.254c0-1.8368-0.4398-3.2079-1.3194-4.1134-0.85372-0.90546-2.0567-1.3582-3.6089-1.3582-1.7333 0-3.1303 0.53034-4.191 1.591-1.0607 1.0348-1.591 2.587-1.591 4.6567v10.478z"/>
  </g>
</svg>
